<?xml version="1.0" standalone="no"?>
<!DOCTYPE svg PUBLIC "-//W3C//DTD SVG 20010904//EN"
 "http://www.w3.org/TR/2001/REC-SVG-20010904/DTD/svg10.dtd">
<svg version="1.0" xmlns="http://www.w3.org/2000/svg"
 width="64.000000pt" height="64.000000pt" viewBox="0 0 64.000000 64.000000"
 preserveAspectRatio="xMidYMid meet">
<metadata>
Created by potrace 1.10, written by Peter Selinger 2001-2011
</metadata>
<g transform="translate(0.000000,64.000000) scale(0.100000,-0.100000)"
fill="#000000" stroke="none">
<path d="M251 548 c-63 -156 -81 -205 -81 -214 0 -18 25 -24 101 -24 38 0 69
-2 69 -5 0 -2 -10 -25 -22 -50 -20 -42 -25 -45 -60 -45 -21 0 -38 -5 -38 -10
0 -6 16 -36 35 -66 24 -37 41 -54 50 -50 29 11 165 107 165 116 0 6 -16 10
-35 10 l-35 0 40 80 c22 44 40 86 40 94 0 20 -23 26 -101 26 -56 0 -69 -3 -69
-16 0 -13 10 -15 60 -12 33 1 60 2 60 1 0 -1 -11 -28 -25 -59 -14 -31 -22 -61
-18 -67 3 -6 1 -7 -5 -3 -7 4 -13 -2 -16 -16 -11 -54 -13 -77 -5 -72 5 3 9 14
9 25 0 21 15 26 26 8 9 -16 -19 -40 -51 -44 -16 -1 -34 -11 -41 -20 -12 -16
-14 -16 -25 8 -11 24 -9 29 14 47 14 11 36 41 48 65 l22 44 -23 19 c-15 12
-36 18 -57 16 -38 -3 -49 9 -35 39 6 12 13 31 17 42 5 13 9 15 12 8 3 -7 9
-13 14 -13 14 0 71 131 65 147 -3 8 -22 13 -51 13 -38 0 -47 -4 -54 -22z m36
-42 c-18 -71 -62 -166 -77 -166 -16 0 -12 27 10 72 11 23 20 46 20 50 0 5 7
25 15 44 16 38 41 38 32 0z"/>
<path d="M182 50 c-90 -13 -85 -31 10 -38 43 -3 59 -1 54 7 -4 6 -1 11 6 12 7
0 24 2 38 4 40 6 111 -6 104 -17 -8 -12 111 -7 122 5 12 12 -2 18 -67 27 -74
11 -191 11 -267 0z"/>
</g>
</svg>
